<svg xmlns="http://www.w3.org/2000/svg" viewBox="0 0 48 60" x="0px" y="0px"><g><path d="M11.575,15.421a.5.5,0,1,1-.5-.5A.5.5,0,0,1,11.575,15.421Zm21.936,9.925a.5.5,0,1,0,.5-.5A.5.5,0,0,0,33.511,25.346ZM16.762,7.938a.5.5,0,0,0-.317-.949,8.051,8.051,0,0,0-4.839,4.375,10.057,10.057,0,0,0-.51,1.36.5.5,0,0,0,.337.622.541.541,0,0,0,.142.02.5.5,0,0,0,.48-.357,9.087,9.087,0,0,1,.458-1.224A7.073,7.073,0,0,1,16.762,7.938ZM37.4,33.087c-.372-1.059-.665-1.75-.974-2.482-.346-.821-.7-1.669-1.2-3.115a.5.5,0,0,0-.947.325c.508,1.478.874,2.343,1.227,3.179.3.718.59,1.4.952,2.425a.5.5,0,1,0,.943-.332Zm-3.8-1.456c1.24,2.969,3.115,7.455.461,8.975a3.249,3.249,0,0,1-1.616.431A3.149,3.149,0,0,1,32,41.006l-15.4-.8a3.733,3.733,0,0,1-3.067-2.057,3.885,3.885,0,0,1,.334-3.98.493.493,0,0,1,.443-.224l3.8.2c-.344-1.045-.778-2.092-1.144-2.963-.144-.344-.278-.663-.393-.95-.8-2.012-4.7-12.318-2.247-17.608a5.044,5.044,0,0,1,3.066-2.791A3.6,3.6,0,0,1,18.4,9.643l15.38.856a2.607,2.607,0,0,1,2.1.567,3.893,3.893,0,0,1,1.155,3.36.5.5,0,0,1-.494.426h-.01l-5.924-.115c-1.275,4.355.984,11.97,2.594,15.942C33.323,30.967,33.457,31.287,33.6,31.631ZM33.412,11.6A4.009,4.009,0,0,0,31,13.745l5.084.1a2.786,2.786,0,0,0-.838-2.013A1.811,1.811,0,0,0,33.412,11.6ZM29.883,39.9l-.033-.035a3.772,3.772,0,0,1-.69-4.129l-14.609-.769a2.8,2.8,0,0,0-.129,2.737,2.718,2.718,0,0,0,2.225,1.51Zm2.795-7.878c-.146-.35-.282-.675-.4-.965C31.8,29.868,27.646,19.3,29.9,13.745a5.293,5.293,0,0,1,1.822-2.36l-13.329-.743a2.642,2.642,0,0,0-.683.142,4.029,4.029,0,0,0-2.476,2.263c-2.328,5.021,1.791,15.624,2.269,16.816.112.282.245.6.387.935.415.99.916,2.2,1.288,3.406L30,34.774a.5.5,0,0,1,.391.775,2.817,2.817,0,0,0,.185,3.628,2.717,2.717,0,0,0,1.55.835l.359.018.046,0a2.209,2.209,0,0,0,1.031-.3C35.453,38.657,33.716,34.5,32.678,32.017Z"/></g><text x="0" y="63" fill="#000000" font-size="5px" font-weight="bold" font-family="'Helvetica Neue', Helvetica, Arial-Unicode, Arial, Sans-serif">Created by The Icon Z</text><text x="0" y="68" fill="#000000" font-size="5px" font-weight="bold" font-family="'Helvetica Neue', Helvetica, Arial-Unicode, Arial, Sans-serif">from the Noun Project</text></svg>