<svg xmlns="http://www.w3.org/2000/svg" data-name="Layer 1" viewBox="0 0 100 125" x="0px" y="0px"><title>all</title><g><g><g data-name="Zoom In"><g data-name="Calendar"><g><g><g><g><g><path d="M75.42,64.06a17.88,17.88,0,0,0-10.18,3.17L59.14,60c4.51-1.75,9.3-4.35,12.06-8,6.25-8.33,20.57-28.12,21.88-33.59S91.25,0,91.25,0L50,49.09,8.75,0S5.63,12.89,6.93,18.36,22.55,43.62,28.8,52c2.75,3.67,7.55,6.27,12.05,8l-6.1,7.26A18.08,18.08,0,1,0,40,72.8l8.17-9.72S48.85,63,50,62.71c1.15,0.25,1.85.37,1.85,0.37L60,72.8A18,18,0,1,0,75.42,64.06ZM24.58,90.63A8.59,8.59,0,1,1,33.18,82,8.6,8.6,0,0,1,24.58,90.63Zm50.84,0A8.59,8.59,0,1,1,84,82,8.6,8.6,0,0,1,75.42,90.63Z"/></g></g></g></g></g></g></g></g></g><text x="0" y="115" fill="#000000" font-size="5px" font-weight="bold" font-family="'Helvetica Neue', Helvetica, Arial-Unicode, Arial, Sans-serif">Created by i cons</text><text x="0" y="120" fill="#000000" font-size="5px" font-weight="bold" font-family="'Helvetica Neue', Helvetica, Arial-Unicode, Arial, Sans-serif">from the Noun Project</text></svg>